<svg width="32" height="32" viewBox="0 0 32 32" fill="none" xmlns="http://www.w3.org/2000/svg">
<path d="M9.292 9.29196C9.38489 9.19883 9.49524 9.12494 9.61673 9.07453C9.73822 9.02412 9.86847 8.99817 10 8.99817C10.1315 8.99817 10.2618 9.02412 10.3833 9.07453C10.5048 9.12494 10.6151 9.19883 10.708 9.29196L16 14.586L21.292 9.29196C21.385 9.19898 21.4954 9.12523 21.6168 9.07491C21.7383 9.02459 21.8685 8.99869 22 8.99869C22.1315 8.99869 22.2617 9.02459 22.3832 9.07491C22.5046 9.12523 22.615 9.19898 22.708 9.29196C22.801 9.38493 22.8747 9.49531 22.925 9.61679C22.9754 9.73827 23.0013 9.86847 23.0013 9.99996C23.0013 10.1314 22.9754 10.2616 22.925 10.3831C22.8747 10.5046 22.801 10.615 22.708 10.708L17.414 16L22.708 21.292C22.801 21.3849 22.8747 21.4953 22.925 21.6168C22.9754 21.7383 23.0013 21.8685 23.0013 22C23.0013 22.1314 22.9754 22.2616 22.925 22.3831C22.8747 22.5046 22.801 22.615 22.708 22.708C22.615 22.8009 22.5046 22.8747 22.3832 22.925C22.2617 22.9753 22.1315 23.0012 22 23.0012C21.8685 23.0012 21.7383 22.9753 21.6168 22.925C21.4954 22.8747 21.385 22.8009 21.292 22.708L16 17.414L10.708 22.708C10.615 22.8009 10.5046 22.8747 10.3832 22.925C10.2617 22.9753 10.1315 23.0012 10 23.0012C9.86851 23.0012 9.73831 22.9753 9.61683 22.925C9.49535 22.8747 9.38498 22.8009 9.292 22.708C9.19902 22.615 9.12527 22.5046 9.07495 22.3831C9.02463 22.2616 8.99874 22.1314 8.99874 22C8.99874 21.8685 9.02463 21.7383 9.07495 21.6168C9.12527 21.4953 9.19902 21.3849 9.292 21.292L14.586 16L9.292 10.708C9.19887 10.6151 9.12499 10.5047 9.07457 10.3832C9.02416 10.2617 8.99821 10.1315 8.99821 9.99996C8.99821 9.86842 9.02416 9.73818 9.07457 9.61669C9.12499 9.4952 9.19887 9.38485 9.292 9.29196Z" fill="black" fill-opacity="0.2"/>
</svg>
