<svg width="52" height="53" viewBox="0 0 52 53" fill="none" xmlns="http://www.w3.org/2000/svg">
<path d="M25.9775 52.5L10.9164 48.3235L7.56006 10.7192H44.4401L41.0802 48.3176L25.9775 52.5Z" fill="#264DE4"/>
<path d="M38.2037 45.9234L41.075 13.7939H26V49.3031L38.2037 45.9234Z" fill="#2965F1"/>
<path d="M15.2543 27.7408L15.6681 32.3528H26V27.7408H15.2543Z" fill="#EBEBEB"/>
<path d="M14.4229 18.406L14.8426 23.0181H26.0001V18.406H14.4229Z" fill="#EBEBEB"/>
<path d="M26 39.7187L25.9798 39.724L20.8378 38.3371L20.5091 34.6588H15.8744L16.5212 41.9003L25.9788 44.523L26 44.5171V39.7187Z" fill="#EBEBEB"/>
<path d="M16.2395 0.5H21.8315V2.83594H18.578V5.17188H21.8315V7.50781H16.2395V0.5Z" fill="black"/>
<path d="M22.9498 0.5H28.5418V2.53125H25.2883V2.9375H28.5418V7.60938H22.9498V5.47656H26.2033V5.07031H22.9498V0.5Z" fill="black"/>
<path d="M29.6602 0.5H35.2521V2.53125H31.9986V2.9375H35.2521V7.60938H29.6602V5.47656H32.9137V5.07031H29.6602V0.5Z" fill="black"/>
<path d="M36.7163 27.7408L37.5498 18.406H25.9841V23.0181H32.4899L32.0698 27.7408H25.9841V32.3528H31.6694L31.1335 38.3342L25.9841 39.7226V44.5208L35.4492 41.9004L35.5187 41.1212L36.6036 28.9793L36.7163 27.7408Z" fill="white"/>
</svg>
