<svg width="52" height="53" viewBox="0 0 52 53" fill="none" xmlns="http://www.w3.org/2000/svg">
<g clip-path="url(#clip0_8_71)">
<path d="M10.9326 48.3235L7.57996 10.7192H44.4201L41.0639 48.3176L25.9775 52.5L10.9326 48.3235Z" fill="#E44D26"/>
<path d="M26 49.3031L38.1905 45.9234L41.0587 13.7939H26V49.3031Z" fill="#F16529"/>
<path d="M26 27.7408H19.8971L19.4756 23.0181H26V18.406H25.9841H14.4353L14.5457 19.6433L15.6792 32.3528H26V27.7408Z" fill="#EBEBEB"/>
<path d="M26 39.7187L25.9798 39.724L20.8433 38.3371L20.515 34.6588H18.0191H15.8853L16.5314 41.9003L25.9787 44.523L26 44.5171V39.7187Z" fill="#EBEBEB"/>
<path d="M11.0076 0.5H13.3513V2.81562H15.4953V0.5H17.8392V7.51228H15.4954V5.16416H13.3514V7.51228H11.0077V0.5H11.0076Z" fill="black"/>
<path d="M20.9213 2.82538H18.8579V0.5H25.3295V2.82538H23.2652V7.51228H20.9214V2.82538H20.9213Z" fill="black"/>
<path d="M26.3566 0.5H28.8005L30.3038 2.96391L31.8056 0.5H34.2504V7.51228H31.9163V4.03661L30.3038 6.52987H30.2635L28.6499 4.03661V7.51228H26.3566V0.5Z" fill="black"/>
<path d="M35.4169 0.5H37.7613V5.19442H41.0573V7.51228H35.4169V0.5Z" fill="black"/>
<path d="M25.984 27.7408V32.3528H31.6632L31.1278 38.3342L25.984 39.7226V44.5208L35.4389 41.9004L35.5082 41.1212L36.592 28.9793L36.7045 27.7408H35.4617H25.984Z" fill="white"/>
<path d="M25.984 18.406V21.2705V23.0068V23.0181H37.1094H37.1242L37.2167 21.9814L37.4269 19.6433L37.5371 18.406H25.984Z" fill="white"/>
</g>
<defs>
<clipPath id="clip0_8_71">
<rect width="52" height="52" fill="white" transform="translate(0 0.5)"/>
</clipPath>
</defs>
</svg>
