<svg width="52" height="53" viewBox="0 0 52 53" fill="none" xmlns="http://www.w3.org/2000/svg">
<g clip-path="url(#clip0_8_67)">
<path d="M46.9219 0.5H5.07812C2.27355 0.5 0 2.77355 0 5.57812V47.4219C0 50.2264 2.27355 52.5 5.07812 52.5H46.9219C49.7264 52.5 52 50.2264 52 47.4219V5.57812C52 2.77355 49.7264 0.5 46.9219 0.5Z" fill="#3178C6"/>
<path d="M46.9219 0.5H5.07812C2.27355 0.5 0 2.77355 0 5.57812V47.4219C0 50.2264 2.27355 52.5 5.07812 52.5H46.9219C49.7264 52.5 52 50.2264 52 47.4219V5.57812C52 2.77355 49.7264 0.5 46.9219 0.5Z" fill="#3178C6"/>
<path fill-rule="evenodd" clip-rule="evenodd" d="M32.1891 41.879V46.9633C33.0156 47.387 33.9932 47.7047 35.1217 47.9166C36.2503 48.1284 37.4397 48.2344 38.6901 48.2344C39.9088 48.2344 41.0664 48.1179 42.1632 47.8848C43.2599 47.6518 44.2216 47.2678 45.0481 46.7329C45.8747 46.198 46.529 45.4989 47.0111 44.6356C47.4933 43.7723 47.7344 42.7052 47.7344 41.4342C47.7344 40.5126 47.5967 39.705 47.3211 39.0112C47.0456 38.3174 46.6483 37.7004 46.129 37.1602C45.6098 36.62 44.9872 36.1353 44.2613 35.7063C43.5355 35.2773 42.7169 34.8722 41.8056 34.4909C41.138 34.2155 40.5393 33.9481 40.0094 33.6886C39.4796 33.429 39.0292 33.1642 38.6583 32.8942C38.2874 32.624 38.0013 32.338 37.8 32.0362C37.5987 31.7342 37.498 31.3927 37.498 31.0113C37.498 30.6618 37.5881 30.3467 37.7683 30.066C37.9484 29.7852 38.2027 29.5443 38.5312 29.343C38.8597 29.1418 39.2623 28.9855 39.7392 28.8743C40.2161 28.7631 40.7459 28.7076 41.3287 28.7076C41.7525 28.7076 42.2002 28.7394 42.6718 28.8028C43.1433 28.8664 43.6175 28.9644 44.0945 29.0967C44.5713 29.2292 45.0348 29.3961 45.4853 29.5972C45.9356 29.7985 46.3515 30.0315 46.733 30.2964V25.5457C45.9595 25.2492 45.1144 25.0294 44.1978 24.8864C43.2812 24.7434 42.2294 24.6719 41.0426 24.6719C39.8345 24.6719 38.6901 24.8017 37.6093 25.0612C36.5285 25.3207 35.5774 25.7258 34.7561 26.2766C33.9349 26.8274 33.2859 27.5291 32.8091 28.3819C32.3322 29.2345 32.0938 30.254 32.0938 31.4403C32.0938 32.955 32.5309 34.2473 33.4051 35.3171C34.2793 36.3869 35.6065 37.2925 37.3868 38.034C38.0861 38.32 38.7379 38.6007 39.3419 38.8761C39.9459 39.1515 40.4678 39.4375 40.9074 39.7341C41.3472 40.0307 41.6942 40.3537 41.9487 40.7033C42.203 41.0528 42.3301 41.45 42.3301 41.8949C42.3301 42.2233 42.2506 42.5278 42.0917 42.8085C41.9327 43.0892 41.6916 43.3328 41.3684 43.5393C41.0453 43.7459 40.6426 43.9074 40.1605 44.0239C39.6782 44.1405 39.1141 44.1987 38.4676 44.1987C37.3656 44.1987 36.2742 44.0054 35.1932 43.6188C34.1124 43.2322 33.111 42.6523 32.1891 41.879ZM23.6417 29.3521H30.1641V25.1797H11.9844V29.3521H18.4748V47.9297H23.6417V29.3521Z" fill="white"/>
</g>
<defs>
<clipPath id="clip0_8_67">
<rect width="52" height="52" fill="white" transform="translate(0 0.5)"/>
</clipPath>
</defs>
</svg>
